<?xml version="1.0" encoding="utf-8"?>
<!-- Generator: Adobe Illustrator 23.0.0, SVG Export Plug-In . SVG Version: 6.00 Build 0)  -->
<svg version="1.1" id="Capa_1" xmlns="http://www.w3.org/2000/svg" xmlns:xlink="http://www.w3.org/1999/xlink" x="0px" y="0px"
	 viewBox="0 0 300 300" style="enable-background:new 0 0 300 300;" xml:space="preserve">
<style type="text/css">
	.st0{fill:#0D222D;}
	.st1{fill:#A4122F;}
	.st2{font-family:'Arial-BoldMT';}
	.st3{font-size:14.3531px;}
	.st4{font-family:'Swiss721BT-Black';}
	.st5{font-size:18.1775px;}
	.st6{font-size:15px;}
	.st7{fill:#FF0000;}
	.st8{font-size:9px;}
</style>
<polygon class="st0" points="268.2,192.5 263.7,166.4 256.3,166.4 260.7,192.5 "/>
<path class="st0" d="M223.7,188.7c-11.7,0-19.6,9.5-17.6,21.2c2,11.7,13.1,21.2,24.8,21.2c11.7,0,19.6-9.5,17.6-21.2
	C246.5,198.2,235.4,188.7,223.7,188.7z M228.5,216.8c-3.8,0-7.5-3.1-8.1-6.9c-0.6-3.8,1.9-6.9,5.7-6.9s7.5,3.1,8.1,6.9
	C234.8,213.7,232.3,216.8,228.5,216.8z"/>
<path class="st0" d="M73.1,197.1H43.6l3,17.5h26.8c-0.5-1.5-0.9-3.1-1.2-4.6C71.4,205.3,71.8,200.9,73.1,197.1z"/>
<path class="st0" d="M200.4,197.1h-77.9c2.7,3.8,4.5,8.2,5.3,12.8c0.3,1.6,0.4,3.1,0.4,4.6h72.4c-0.5-1.5-0.9-3.1-1.2-4.6
	C198.7,205.3,199.1,200.9,200.4,197.1z"/>
<path class="st0" d="M273.3,197.1h-23.5c2.7,3.8,4.5,8.2,5.3,12.8c0.3,1.6,0.4,3.1,0.4,4.6h20.7L273.3,197.1z"/>
<path class="st0" d="M246,192.5h12.3l-6.1-35.6L218.4,128h-39.1l11,64.5h12.3c4-6.4,11.1-10.4,19.9-10.4
	C231.3,182.1,239.8,186.2,246,192.5z M191.5,156.8l-3.6-21h29.2l22.5,21H191.5z"/>
<path class="st0" d="M96.4,188.7c-11.7,0-19.6,9.5-17.6,21.2c2,11.7,13.1,21.2,24.8,21.2c11.7,0,19.6-9.5,17.6-21.2
	C119.2,198.2,108.1,188.7,96.4,188.7z M101.2,216.8c-3.8,0-7.4-3.1-8.1-6.9c-0.7-3.8,1.9-6.9,5.7-6.9c3.8,0,7.5,3.1,8.1,6.9
	C107.6,213.7,105,216.8,101.2,216.8z"/>
<path class="st0" d="M184.9,189.3l-14.9-87.1c-0.3-1.8-2-3.2-3.8-3.2h-37.8c0.7,3.7,1.1,7.6,1.1,11.6c0,32.7-26.5,59.2-59.2,59.2
	c-9,0-17.5-2-25.1-5.6l4.3,25.2c0.3,1.8,2,3.2,3.8,3.2h21.9c4-6.4,11.1-10.4,19.9-10.4c8.8,0,17.3,4.1,23.5,10.4h63.5
	C184,192.5,185.2,191.1,184.9,189.3z"/>
<g>
	<path class="st1" d="M84.6,58.2c-6.8-2.3-13.8-3-20.6-2.5l3.6,3.1L65.4,63c5.6-0.3,11.3,0.3,16.9,2.2c23.6,7.8,36.4,33.4,28.6,56.9
		c-7.8,23.6-33.4,36.4-56.9,28.6c-23.6-7.8-36.4-33.4-28.6-56.9c4.3-13,14-22.7,25.7-27.5l1,6.5l9.5-13.5l-12.7-7.8l1.1,7.3
		c-14.4,5.3-26.4,16.9-31.6,32.6c-9.1,27.4,5.8,57.1,33.2,66.2c27.4,9.1,57.1-5.8,66.2-33.3C126.9,97,112,67.3,84.6,58.2z"/>
</g>
<text transform="matrix(1 0 0 1 41.3224 113.2971)" class="st2 st3">HORAS</text>
<text transform="matrix(1 0 0 1 43.6112 95.7799)" class="st4 st5">4 a 5</text>
<text transform="matrix(1 0 0 1 42.7445 132.617)" class="st4 st6">CDMX</text>
<text transform="matrix(1 0 0 1 2.8296 295.4255)" class="st7 st4 st8">*Aplican Restricciones en zona de entrega</text>
</svg>
