<?xml version="1.0" encoding="iso-8859-1"?>
<!-- Generator: Adobe Illustrator 19.0.0, SVG Export Plug-In . SVG Version: 6.00 Build 0)  -->
<svg version="1.1" id="Capa_1" xmlns="http://www.w3.org/2000/svg" xmlns:xlink="http://www.w3.org/1999/xlink" x="0px" y="0px"
	 viewBox="0 0 512 512" style="enable-background:new 0 0 512 512;" xml:space="preserve">
<path d="M0,355.2v-324c0-5.6,4.8-10.4,10.4-10.4h491.2c5.6,0,10.4,4.8,10.4,10.4v324H0z"/>
<g>
	<path style="fill:#DBDBDB;" d="M512,355.2v41.6c0,5.6-4.8,10.4-10.4,10.4H10.4c-5.6,0-10.4-4.8-10.4-10.4v-41.6H512z"/>
	<rect x="146.4" y="480.8" style="fill:#DBDBDB;" width="219.2" height="10.4"/>
</g>
<polygon style="fill:#BABABA;" points="328.8,480.8 183.2,480.8 193.6,407.2 318.4,407.2 "/>
<rect x="20.8" y="41.6" style="fill:#FFFFFF;" width="470.4" height="292.8"/>
<polygon style="fill:#999999;" points="318.4,407.2 193.6,407.2 187.792,448.28 320.272,420.424 "/>
<polygon points="102.016,151.76 89.12,113.576 52.392,113.576 52.392,102.36 97.168,102.36 113.928,151.96 "/>
<circle cx="184.72" cy="260.696" r="21.6"/>
<circle cx="119.536" cy="260.696" r="21.6"/>
<path style="fill:#FF0000;" d="M220.504,154.136l-23.984,67.296h-88.6l-20.952-67.296L220.504,154.136 M231.848,146.136H76.096
	l25.936,83.296H202.16L231.848,146.136L231.848,146.136z"/>
<rect x="282" y="170.744" style="fill:#F91E1E;" width="175.056" height="37.08"/>
<rect x="282" y="222.288" width="175.056" height="37.08"/>
<path d="M289.48,131.408l-3.648,11.048h-4.688l11.936-35.136h5.472l11.992,35.136h-4.848l-3.752-11.048H289.48z M301,127.856
	l-3.448-10.112c-0.784-2.296-1.296-4.384-1.824-6.416h-0.104c-0.52,2.088-1.104,4.216-1.776,6.36l-3.448,10.168H301z"/>
<path d="M315.376,124.056c0-2.608-0.056-4.744-0.208-6.832h4.016l0.208,4.064h0.16c1.408-2.4,3.752-4.64,7.92-4.64
	c3.44,0,6.048,2.088,7.144,5.064h0.104c0.784-1.416,1.776-2.504,2.824-3.288c1.504-1.152,3.176-1.776,5.568-1.776
	c3.336,0,8.288,2.192,8.288,10.952v14.848h-4.48v-14.28c0-4.848-1.776-7.768-5.48-7.768c-2.608,0-4.64,1.928-5.424,4.168
	c-0.208,0.624-0.368,1.456-0.368,2.288v15.584h-4.48v-15.12c0-4.016-1.776-6.928-5.264-6.928c-2.864,0-4.952,2.288-5.68,4.584
	c-0.264,0.68-0.368,1.464-0.368,2.24v15.216h-4.488v-18.376H315.376z"/>
<path d="M372.808,142.456l-0.368-3.176h-0.16c-1.408,1.984-4.12,3.752-7.712,3.752c-5.112,0-7.712-3.592-7.712-7.24
	c0-6.104,5.416-9.44,15.168-9.384v-0.52c0-2.088-0.568-5.832-5.736-5.832c-2.344,0-4.8,0.728-6.568,1.872l-1.04-3.024
	c2.088-1.352,5.112-2.24,8.288-2.24c7.712,0,9.584,5.264,9.584,10.32v9.44c0,2.184,0.112,4.328,0.424,6.048h-4.168V142.456z
	 M372.128,129.576c-5-0.104-10.68,0.784-10.68,5.68c0,2.976,1.976,4.384,4.32,4.384c3.288,0,5.376-2.088,6.104-4.224
	c0.16-0.472,0.256-0.984,0.256-1.464L372.128,129.576L372.128,129.576z"/>
<path d="M381.088,139.8l11.416-14.856c1.096-1.352,2.144-2.552,3.288-3.904v-0.104h-13.656v-3.704h19.224l-0.048,2.864
	l-11.256,14.648c-1.048,1.408-2.088,2.656-3.232,3.96v0.104h14.752v3.648h-20.488V139.8z"/>
<path d="M428.72,129.632c0,9.328-6.464,13.392-12.56,13.392c-6.832,0-12.088-5-12.088-12.976c0-8.448,5.52-13.4,12.504-13.4
	C423.824,116.648,428.72,121.912,428.72,129.632z M408.704,129.888c0,5.52,3.176,9.696,7.664,9.696c4.384,0,7.664-4.12,7.664-9.8
	c0-4.272-2.144-9.696-7.56-9.696C411.056,120.096,408.704,125.096,408.704,129.888z"/>
<path d="M434.496,124.056c0-2.608-0.056-4.744-0.208-6.832h4.072l0.256,4.168h0.104c1.256-2.4,4.168-4.752,8.344-4.752
	c3.496,0,8.912,2.088,8.912,10.744v15.064h-4.584v-14.536c0-4.072-1.512-7.464-5.84-7.464c-3.016,0-5.368,2.144-6.152,4.696
	c-0.2,0.568-0.312,1.352-0.312,2.136v15.168h-4.584v-18.392H434.496z"/>
<g>
</g>
<g>
</g>
<g>
</g>
<g>
</g>
<g>
</g>
<g>
</g>
<g>
</g>
<g>
</g>
<g>
</g>
<g>
</g>
<g>
</g>
<g>
</g>
<g>
</g>
<g>
</g>
<g>
</g>
</svg>
