<?xml version="1.0" encoding="iso-8859-1"?>
<!-- Generator: Adobe Illustrator 19.0.0, SVG Export Plug-In . SVG Version: 6.00 Build 0)  -->
<svg version="1.1" id="Layer_1" xmlns="http://www.w3.org/2000/svg" xmlns:xlink="http://www.w3.org/1999/xlink" x="0px" y="0px"
	 viewBox="0 0 512 512" style="enable-background:new 0 0 512 512;" xml:space="preserve">
<g transform="translate(1 1)">
	<path style="fill:#FD9808;" d="M255,272.067h120.32c7.68,0,10.24,9.387,4.267,13.653l-17.067,11.947
		c-5.973,4.267-5.973,13.653,0,17.92l24.747,16.213c5.973,4.267,5.973,13.653,0,17.92l-25.6,16.213
		c-5.973,4.267-5.973,13.653,0,17.92l24.747,17.067c5.973,4.267,5.973,13.653,0,17.067l-25.6,17.067
		c-5.973,4.267-5.973,12.8,0,17.067l15.36,10.24c75.947-21.333,126.293-60.587,126.293-104.96V152.6
		C502.467,218.307,391.533,272.067,255,272.067"/>
	<path style="fill:#FFDD09;" d="M255,272.067h120.32c7.68,0,10.24,9.387,4.267,13.653l-17.067,11.947
		c-5.973,4.267-5.973,13.653,0,17.92l24.747,16.213c5.973,4.267,5.973,13.653,0,17.92l-25.6,16.213
		c-5.973,4.267-5.973,13.653,0,17.92l24.747,17.067c5.973,4.267,5.973,13.653,0,17.067l-25.6,17.067
		c-5.973,4.267-5.973,12.8,0,17.067l15.36,10.24c75.947-21.333,100.693-60.587,100.693-104.96V152.6
		C476.867,218.307,391.533,272.067,255,272.067"/>
	<path style="fill:#FFFFFF;" d="M379.587,285.72l-17.067,11.947c-5.973,4.267-5.973,13.653,0,17.92l24.747,16.213
		c5.973,4.267,5.973,13.653,0,17.92l-25.6,16.213c-5.973,4.267-5.973,13.653,0,17.92l24.747,17.067
		c5.973,4.267,5.973,13.653,0,17.067l-25.6,17.067c-5.973,4.267-5.973,12.8,0,17.067l17.92,11.947
		c5.973,4.267,3.413,13.653-4.267,13.653H255C118.467,476.867,7.533,423.107,7.533,357.4V152.6
		c0,65.707,110.933,119.467,247.467,119.467h120.32C383,272.067,385.56,281.453,379.587,285.72"/>
	<g>
		<path style="fill:#FFDD09;" d="M380.44,285.72l-17.92,11.947c-5.973,4.267-5.973,13.653,0,17.92l24.747,16.213
			c5.973,4.267,5.973,13.653,0,17.92l-24.747,16.213c-5.973,4.267-5.973,13.653,0,17.92l24.747,17.067
			c5.973,4.267,5.973,13.653,0,17.067l-25.6,17.067c-5.973,4.267-5.973,12.8,0,17.067l17.92,11.947
			c5.973,4.267,3.413,13.653-4.267,13.653H280.6C144.067,476.867,33.133,423.107,33.133,357.4V152.6
			c0,65.707,110.933,119.467,247.467,119.467h95.573C383,272.067,386.413,281.453,380.44,285.72"/>
		<path style="fill:#FFDD09;" d="M476.867,152.6c0,65.707-98.987,119.467-221.867,119.467S33.133,218.307,33.133,152.6
			S132.12,33.133,255,33.133S476.867,86.893,476.867,152.6"/>
	</g>
	<path style="fill:#FFFFFF;" d="M33.133,152.6C33.133,86.893,132.12,33.133,255,33.133C118.467,33.133,7.533,86.893,7.533,152.6
		S118.467,272.067,255,272.067C132.12,272.067,33.133,218.307,33.133,152.6"/>
	<path style="fill:#FD9808;" d="M255,33.133c122.88,0,221.867,53.76,221.867,119.467S377.88,272.067,255,272.067
		c136.533,0,247.467-53.76,247.467-119.467S391.533,33.133,255,33.133"/>
	<path style="fill:#FCC309;" d="M348.867,152.6c0,23.893-41.813,42.667-93.867,42.667s-93.867-18.773-93.867-42.667
		s41.813-42.667,93.867-42.667S348.867,128.707,348.867,152.6"/>
	<path d="M255,203.8c-58.027,0-102.4-22.187-102.4-51.2s44.373-51.2,102.4-51.2s102.4,22.187,102.4,51.2S313.027,203.8,255,203.8z
		 M255,118.467c-48.64,0-85.333,17.92-85.333,34.133S206.36,186.733,255,186.733s85.333-17.92,85.333-34.133
		S303.64,118.467,255,118.467z"/>
	<path d="M255,280.6c-143.36,0-256-56.32-256-128s112.64-128,256-128s256,56.32,256,128S398.36,280.6,255,280.6z M255,41.667
		c-129.707,0-238.933,51.2-238.933,110.933S125.293,263.533,255,263.533s238.933-51.2,238.933-110.933S384.707,41.667,255,41.667z"
		/>
	<path d="M375.32,485.4H255c-143.36,0-256-56.32-256-128V152.6c0-5.12,3.413-8.533,8.533-8.533s8.533,3.413,8.533,8.533
		c0,59.733,109.227,110.933,238.933,110.933h120.32c6.827,0,12.8,4.267,15.36,11.093c1.707,6.827-0.853,13.653-6.827,17.92
		l-17.92,11.947c0,0.853,0,0.853,0,1.707s0,0.853,0.853,1.707l24.747,16.213c5.12,3.413,8.533,9.387,8.533,16.213
		s-3.413,12.8-8.533,16.213l-24.747,16.213c-0.853,0.853-0.853,0.853-0.853,1.707c0,0.853,0,0.853,0.853,1.707l24.747,16.213
		c5.12,3.413,8.533,9.387,8.533,16.213c0,6.827-3.413,11.947-8.533,16.213l-25.6,17.067c0,0,0,0.853,0,0.853s0,0.853,0.853,1.707
		l17.92,11.947c5.973,4.267,8.533,11.093,6.827,17.92C388.973,481.133,383,485.4,375.32,485.4z M375.32,470.04L375.32,470.04
		L375.32,470.04z M16.067,199.533V357.4c0,59.733,109.227,110.933,238.933,110.933h116.907l-15.36-10.24
		c-5.12-3.413-8.533-9.387-8.533-15.36c0-5.973,3.413-11.947,8.533-15.36l25.6-17.067C383,409.453,383,409.453,383,408.6
		c0-0.853,0-0.853-0.853-1.707L357.4,390.68c-5.12-3.413-8.533-9.387-8.533-16.213s3.413-11.947,8.533-16.213l24.747-16.213
		c0.853,0,0.853-0.853,0.853-1.707c0-0.853,0-1.707-0.853-1.707L357.4,322.413c-5.12-3.413-8.533-9.387-8.533-16.213
		c0-6.827,3.413-12.8,8.533-16.213l14.507-9.387H255C144.92,280.6,52.76,247.32,16.067,199.533z"/>
	<path d="M377.027,470.04c-1.707,0-3.413-0.853-5.12-1.707l-15.36-10.24c-5.12-3.413-8.533-9.387-8.533-15.36
		c0-5.973,3.413-11.947,8.533-15.36l25.6-17.067C383,409.453,383,409.453,383,408.6c0-0.853,0-0.853-0.853-1.707L357.4,389.827
		c-5.12-3.413-8.533-9.387-8.533-16.213s3.413-11.947,8.533-16.213l24.747-16.213c0.853,0.853,0.853,0,0.853-0.853
		c0-0.853,0-1.707-0.853-1.707L357.4,322.413c-5.12-3.413-8.533-9.387-8.533-16.213c0-6.827,3.413-12.8,8.533-16.213l14.507-9.387
		H255c-5.12,0-8.533-3.413-8.533-8.533s3.413-8.533,8.533-8.533c129.707,0,238.933-51.2,238.933-110.933
		c0-5.12,3.413-8.533,8.533-8.533c5.12,0,8.533,3.413,8.533,8.533v204.8c0,47.787-49.493,89.6-132.267,111.787
		C378.733,470.04,377.88,470.04,377.027,470.04z M381.293,264.387c4.267,1.707,8.533,5.12,9.387,10.24
		c1.707,6.827-0.853,13.653-6.827,17.92l-17.92,11.947c0,0.853,0,0.853,0,1.707s0,0.853,0.853,1.707l24.747,16.213
		c5.12,3.413,8.533,9.387,8.533,16.213s-3.413,12.8-8.533,16.213l-24.747,16.213c-0.853,0.853-0.853,0.853-0.853,1.707
		c0,0.853,0,0.853,0.853,1.707l24.747,16.213c5.12,3.413,8.533,9.387,8.533,16.213c0,6.827-3.413,11.947-8.533,16.213l-25.6,17.067
		c0,0,0,0.853,0,0.853s0,0.853,0.853,1.707l11.947,7.68c70.827-20.48,115.2-56.32,115.2-94.72V199.533
		C472.6,227.693,432.493,249.88,381.293,264.387z M375.32,280.6L375.32,280.6L375.32,280.6z"/>
</g>
<g>
</g>
<g>
</g>
<g>
</g>
<g>
</g>
<g>
</g>
<g>
</g>
<g>
</g>
<g>
</g>
<g>
</g>
<g>
</g>
<g>
</g>
<g>
</g>
<g>
</g>
<g>
</g>
<g>
</g>
</svg>
