<?xml version="1.0" encoding="utf-8"?>
<!-- Generator: Adobe Illustrator 21.0.0, SVG Export Plug-In . SVG Version: 6.00 Build 0)  -->
<svg version="1.1" id="Pagina_inicial_Escritorio" xmlns="http://www.w3.org/2000/svg" xmlns:xlink="http://www.w3.org/1999/xlink"
	 x="0px" y="0px" viewBox="0 0 346.6 316" style="enable-background:new 0 0 346.6 316;" xml:space="preserve">
<style type="text/css">
	.st0{fill:#D1ECFB;}
	.st1{fill:#57D357;}
	.st2{fill:#103754;}
	.st3{fill:none;}
	.st4{fill:#C1E2DE;}
</style>
<title>mundo</title>
<path class="st0" d="M176.6,0c-87.1,0-158,70.9-158,158s70.9,158,158,158s158.1-70.8,158.1-157.9S263.7,0,176.6,0z"/>
<path class="st1" d="M322.5,209.6c-2,0-4.8,1-4.8,1.7s-2.8,1.9-3.9,2.4s-2.7,3.3-3.2,4.2s-2.7,0.7-3.5,1s-2.6,1.8-2.6,2.6
	s-0.5,0.7-1-0.2l-1.1,1.1l-1.4,1.5c-0.8,2.4-3.3,5.5-4.2,5.7s-1,4.4-1,6.1c0,1.7,0.5,3.3,1.5,4.7v1.4l0.2,2.7
	c-0.2,1.6,0.4,3.2,1.6,4.3c0.5,0.3,4.3-0.7,5.8-1l2-0.8c7-11.8,12.4-24.5,16.2-37.7L322.5,209.6z"/>
<path class="st1" d="M67.8,205.1c-0.2,0.5,2.6,3.3,3.6,4.3c1.6,2.2,2.9,4.7,3.9,7.3c0.3,1.6,0.3,3.1,0,4.7c0.1,0.8,0.3,1.6,0.6,2.4
	c0.1,0.6-0.9,5.1-0.6,7s-2.2,7.6-2,10.6s1.4,6.6,1.8,6.4s0.7,2.6-0.1,3s-1.9,2.6-1.4,2.7s0,2.4,0.1,3.3s0.9,6.9,1,8.4
	s2.3,5.1,2.7,6.4s0.9,3.5,1,3.9l0.3,0.8c0.8,0.2,1.6,0.6,2.3,1c0.5,0.3,3.9,0.1,5-0.1s0.1-1.2-0.3-1.7s-0.9-3.2-1.5-3.4
	s-0.8-3.6-0.3-4.4s2.5-1.9,2.7-2.6s0.2-3.5-0.2-4s0.1-4-0.2-5.8s3.1-3.4,3.3-4.8s4-3,4.8-3.6s1.6-4.8,1.1-5.6s1.4-1.6,2.2-1.6l2-0.6
	c0.2,0,1.2-1.8,1.7-2.2s1.6-4.7,2.5-5.3c0.9-1.1,1.5-2.5,1.7-4c0.4-1.3,1-2.5,1.9-3.6c0.5-0.7,4-2.3,4.7-2.5s1.6-5.9,1.8-8
	c0.4-1.9,0.8-3.7,1.4-5.5c0-0.7,1.1-1.2,1.4-1.5s1-2.8,1.6-3.4s2.5-3.1,2.5-3.6c0.1-1.1,0.4-2.2,0.7-3.2v-3.5
	c-0.6-1.7-2.5-3.9-3-3.3s-2.6-1.5-3.7-1.9c-1.5-0.4-3-0.7-4.5-0.7c-0.7,0-3.1-1.9-4.2-2.3c-1.5-0.3-2.9-0.6-4.3-1.1
	c-0.5-0.3-1.1-4.4-3.4-5.8s-6.1-4.5-6.6-5.7s-4.7-3.5-6-4.3s-3.3-0.9-3.5-0.6s-1.9-2.3-2.7-3s-3.4-1.2-3.5-0.7s-1.8,0.2-2.2-0.2
	s-1.7,0.2-2.4,0.5s-2.7,3.4-3.7,4.2s-2.2-0.7-2.8-1c-1.3,0-2.6,0.3-3.7,1c-0.7,0.5-2.2-3.4-1.8-5.2s-1.6-5.3-3.2-5.5
	s-1.9-3.9-1.7-5.2s-2.7-2.3-3.5-2.4s-2.6,1.8-3,2.8s-7.3-1.2-6.5-5.5s4.1-8.5,4.9-9s5.2-0.7,6.2-0.1c0.6,0.3,1.4,0.3,2-0.2
	c1.7-0.1,3.3,0,4.9,0.5c1,0.5,2.6,4.7,3.7,5.1c1.1,0.4,1.5-2.7,1.7-3.5c-0.1-1.1-0.4-2.3-0.8-3.3c-0.2-0.6,1.8-5.7,3.5-6.5
	s3.5-3.7,3.3-4.2s1.4-0.9,1.7-1.1s0-4.3,0.6-5.2c1.5-1.3,3.1-2.4,4.9-3.2c1-0.5,1.7-3,1.4-3.5s2.6-3,4.2-3.5s2.8,0.9,2.5,1l3.3-1.8
	c0.9-0.6,0-2.6-0.7-3.2s-0.2-2.7,0.6-3c0.8-0.6,1.3-1.5,1.2-2.5c-0.2-0.3,3.4,0.3,4.8-0.7s0.3,2.4-0.6,3.9c-0.5,0.7-0.3,1.7,0.4,2.2
	c0.3,0.2,0.6,0.3,1,0.3c0.7,0,1.3,0.4,1.5,1.1c0.1,0.3,1.5-0.5,2.4,0s1.5-1.2,1.5-2s-2.2-2.3-2.5-3.3c-0.3-2.5-0.5-4.9-0.5-7.4
	c0-1-1.5-2.8-1.9-2.5s-1.4-2.8-2.2-3.5c-0.6-0.8-0.9-1.7-0.9-2.7c0-0.5-2.5-3.2-3.2-4.4s-1.5-1-1.6-0.5s-1.8,0.7-2.6,0.6
	s-1.4-3-1.4-4s-3.3-1.2-3.9-2.2s-2.7-0.5-3.1-1c-0.7-0.6-1.6-1-2.6-0.9c-0.3,0.2-0.2,8.1-0.6,10.1s-2.2,4-2.8,3.9s-0.2,1.5,0.1,1.4
	s-1.2,2.3-1.5,3.9s-1.8,0-2-1.5s-1.8-3.4-2.2-3s-1.4-0.6-1.8-0.2s-3.4-1.7-4.7-2.4s-1.8-4.3-2.6-4.7s-0.1-0.8-0.1-1.4
	s2.4-2.7,3.1-3.5c1.3-1.7,2.8-3.4,4.3-5c1-0.8,1.8-2.6,1.6-3s4.4-1.8,5.7-2.2s2.3-3.9,2.5-4.9c0-1.2-0.5-2.3-1.4-3.1
	c-0.6-0.2,1.7-0.3,2.5,0.1s3.1-0.7,4.1-0.2l4.2,2.5L83.5,62l-0.6,4.3c-3.6,1.5-4.7,4.1-3.4,4s7,2.5,8.6,3.6s2.2-1.7,2.6-2.6
	c0.4-1.4,0.4-2.8,0-4.2c-0.5-0.6,1.8-0.3,2.5,0.2s1.4-0.6,1.8-0.9s0.7-2.6,1-3.1s-1-0.9-1.1-1.6s-2.6-1.7-3.4-2.2
	c-0.8-0.6-1-1.6-0.6-2.5c0.3-0.3-0.2-2.6-0.7-3.3s-3.1-1.4-4-1.4s-1.8-2-2.4-2.4c-1.6-0.4-3.3-0.6-4.9-0.5c-0.8,0.2-2.4-2.5-3.9-1.6
	s-3-0.9-3.6-1.4s-4.1,3.3-4,5.8s1.2,5,1.8,5.1s-0.1,2.4-0.7,3.1s-2-0.7-1.5-1.2s-1.5-3.3-2.2-4.3s-2.3-1.5-3.4-1.9l-2,2.3
	c0.3,1,0.4,2.1,0.2,3.1c-0.5,1.6-1.8,1.8-1.8,1.1c-0.4-0.4-0.9-0.6-1.5-0.6c-19.7,23.5-32,52.2-35.6,82.6c0.8,0.7,1.4,1.6,1.8,2.6
	c0.5,1.4,2.8,2.3,3.3,2.6s0.6-2.6,0.2-3.4s0.6-1.1,0.6-0.7s2.3,3.1,3,4.1s1.5,6.9,2.3,8.2c0.8,1.3,7.6,4,9.9,4.4
	c2.1,0.7,4,1.9,5.5,3.6c0.5,0.7,3.4,1,4,1.4c1,0.8,1.9,1.7,2.7,2.7c0.5,0.5,0.9,1.2,1.1,1.9c0,0.3,3.9,1.8,4.9,2.8
	c0.8,0.7,1.9,0.8,2.8,0.3c0.2-0.5,1,2,1.5,3s0.5,3,0.1,3.3s-0.8,4.2-1.5,5s-2,6.5-1.7,7.6c0.6,1.5,1.7,2.8,3,3.7
	c0.4,0.2,0.6,0.8,0.3,1.2v0.1l-0.4,0.3c-0.6,0-0.3,5.6,1.1,6.4C66.6,203.4,68.1,204.7,67.8,205.1z"/>
<path class="st2" d="M95.8,108.9"/>
<path class="st1" d="M85,42.2c1.8-0.3,5-0.9,5.2-1.4c0.1-0.7,0.1-1.5-0.1-2.2H91c0.7,0,1.9-3.9,2.6-4.8s5-2.3,6-2.8s3.3-2.7,4.1-3.1
	s2.2-2.3,1.9-2.6s3-2.3,4.1-2.7s1.8-1.8,1.4-1.9s-6.8,3.4-12.8,6.8c-6.9,4.7-13.4,9.9-19.5,15.6L85,42.2z"/>
<path class="st1" d="M190.8,238.9c1.9-1.1,5.5-6.2,6.6-7.3s1.9-4.9,2.2-5.7c0.6-1,1.5-1.8,2.5-2.4c0.6-0.2,2.6-8.6,4.4-10.6
	s3.9-10.8,3.6-14.1s1.1-9.3,1.6-10.8c0.8-1.7,1.9-3.3,3.3-4.7c2.3-2.9,4.4-6,6.4-9.2c1.4-2.3,2.7-7.3,2.4-8.5s-3.3-2-3.9-1.4
	s-3.4,1-4.3,1s-3-4.9-4.2-5.8s-2.4-6.6-3.2-7.6c-1.1-1.5-2.2-2.9-3.4-4.3c-0.7-0.6-0.8-3.5-0.9-4.3s1.2,0.5,1.5,1.7s3.5,5.9,4.5,7.5
	s3.7,6.7,4.4,8.3s6.7,0.8,8.7-0.1s4.4-2.5,4.5-3.1s3.2-1.9,4.1-2.6s1.6-4.3,2.2-4.9s-0.5-4.1-1.1-5.1s-3.7-1.8-4.4-1.5
	s-1.9-2.3-2.5-3.3s-2.8-2.3-3.1-3c0-0.8,0.4-1.5,1-2c0.3-0.2,4.8,2.8,6,4.4c1.2,1.5,2.2,3.2,3,4.9c0.2,0.6,3.7,0.7,4.5,0.1
	c0.5-0.5,1.2-0.5,1.7,0l0.1,0.1l0.2,0.2h1l3.9-0.6c1.2,1.1,2,2.5,2.3,4.1c0.3,0.9,1,1.7,1.8,2.2c0.7,0.1,1.2,2.6,1.5,3.3
	c1,1.9,2,3.9,2.8,5.9c0.7,1.9,1.6,3.8,2.7,5.5c0.5,1.2,0.7,2.6,0.8,3.9c0.3,1,1.2,1.7,2.3,1.8c0.8-0.1,2.6-5.6,3.1-7.6
	s1.8-3.7,2.2-3.7s0.7-1.1,0.7-1.6s2.2-0.3,2.4-0.9s0.8-4.2,1.6-4.8c1.4-1,2.9-1.9,4.5-2.7c0.9-0.3,3.5,1.8,4.1,2.8
	c0.6,1.2,0.9,2.6,0.8,4c-0.2,0.3,1.2,2.6,2.6,2.6s1.7,1.7,1.8,2.3s1.8,2.4,2.2,3.2c0.3,1.2,0.3,2.3,0,3.5c-0.1,1.4-0.1,2.8,0.1,4.2
	c0.2,0.8,4.3,5,5.9,6.2s2.3-2.6,1.5-3.7s-3.5-4-4.1-4.8s-0.7-4.2-0.5-5.1s2.4,0.5,3.2,1.1c0.9,0.7,1.6,1.6,2,2.6
	c0,0.5,5.6-2.6,5.8-5.9s2-7.2,2.2-8.1c0.1-0.9-0.3-1.7-1-2.2c-0.5-0.1,0.8-2.5,2.4-2.5s5.2-4.1,6.1-5.8c0.8-1.2,1.7-2.3,2.8-3.2
	c0.8-1.8,1.3-3.7,1.6-5.7c0.2-1.6-0.9-4.1-1-5c-0.4-1.2-1-2.3-1.8-3.3c-0.4-1-0.6-2.2-0.5-3.3c0.1-0.3,1.6-0.8,1.7-1.2
	s1.7-2,1.6-2.8s0.9,1,1.7,1.6s1.5,4.7,2.4,5s4.5-4.2,4.1-7.3s1-6.9,1.9-7.3s2.4-2.7,3.5-4.4c-8.1-23.2-21.4-44.2-39-61.3h-0.6
	l-1.4-0.2c-2.3-0.5-3.5-2.8-3.2-3.4c0.1-0.3,0.1-0.7,0-1c-1.2-1.1-2.5-2.3-3.9-3.3H275c-1.7-0.2-3.3-0.7-4.8-1.5
	c-0.5-0.5-2.3,0.5-2.4,1.5s-3.2,1.4-3.4,2.2c-0.5,0.7-1.4,0.9-2.2,0.5c-0.2-0.5-3.2,1-4.5,1.1c-1.6,0.3-3.2,0.9-4.7,1.6
	c-1,0.6-1.8,1.4-2.4,2.4c-0.7,0.8-1.6,1.4-2.6,1.8c-0.6,0.2-0.5,2.8,0.2,3.3s-1.4-0.3-2.4-0.8s-1.9,1.1-2.3,1.7s-1.1-0.3-1.1-1.1
	s-2.4-1.4-2.6-0.8s-1.9-0.2-2.6-0.6s-3.6,2.7-4.8,3.9s-6.4,1.9-7.3,1.6s-1.9,2.3-1.1,2.5h-3.2c-2.6,0.6-5.1,1.5-7.5,2.8
	c-0.5,0.4-1.3,0.4-1.7-0.1c-0.2-0.2-0.3-0.4-0.3-0.7c0-0.7-1.8-1.2-2.3-1.4s-1.6,3.5-2.5,4.2s-2-2.8-4.3-3.5s-5.7-2.7-6.7-3
	s-3-2.3-3.5-3s-3.4-1-4.3-1s-3.9,1.7-4.7,2.3s-1.9,0.5-2.4,0.8l-5,4.4c-1.2,1-3.5,5.3-4.2,6.5c-0.5,0.7-1.3,1.2-2.2,1.2
	c-0.5,0.4-0.8,1-0.8,1.6c0,0.5-3.7,2.4-4.2,4.1s0.5,5.7,0.5,7s1.4,4.2,2.4,4.2s0.6,2.4,0.2,3.1s0.7,1.4,0.6,1.9s-2.6,1.4-3.4,1.6
	c-1.1,0.7-1.9,1.6-2.3,2.8c-0.1,0.6-2.6,1-3.5,1.8c0.2-0.6,0.4-1.2,0.7-1.8c0.3-1,0-2-0.6-2.8c-0.3-0.3-0.6-4.9-1.2-5.9
	c-0.8-1.1-1.7-2.1-2.6-3c-0.3-0.3,0.2-1.5,0.6-2s-2.2-0.8-2.7-0.5s-1,4.9-1.2,6.1c0,1.3,0.6,2.5,1.6,3.2c0.5,0.1,0.2,2.3-0.6,2.4
	s-1.6,3.3-1.1,4.1s-0.6,2.2-1,2.5s3.2,0.1,4.9,0.1c1-0.1,2,0.2,2.8,0.8c-0.1,0.1-3.2,0.6-3.7,1.2s-2.6,2-3,2.6s0.7,1.7,1.5,1.7
	s1.8,3,2.5,3.5c0.5,0.8,0.6,1.8,0.1,2.6c-0.2,0.5-4.4-0.2-5.9,0.1s-3.5,3.6-3.6,4.9c0,1.9,0.2,3.9,0.5,5.8c0.1,1,3.4,1.6,4.1,2
	s3.7,0,4.4,0.3s2.7-3.2,3.2-4.8s3.7-4.5,4.4-5.7s4.2-0.9,5.1-1.5s0.5,2.7,0.8,4.5s3.9,1.6,3.3-0.1s0.3-2.4,0.5-1.8s3.4,1.9,4.1,2.8
	s0.5,3-0.2,3s-0.8,2.2,0,2.5s1.8-2.5,2.6-3s1.5-2.2,1.1-2.3s0.7-1.7,1.1-1.1c-0.8-1.7-1.9-3.4-3.2-4.8c-1.5-1.5-0.3-0.8,2.2,1.4
	l1.8,2.5c0.3,0.5,0.8,1.8,1.1,2.3l0.5,0.7c0.4,1.3,0.6,2.6,0.7,4c0.3,1,1.2,1.7,2.3,1.8c0.5-0.1,1.1,0.1,1.4,0.5
	c-0.1,0.1,0.6,1.7,1.4,1.7s1.2-2.2,0.3-2.2s-0.7-3.2-0.8-4.7s0.6-2.5,0.9-2.5s0,2.8,0,3.5c0.1,1,0.4,1.9,0.8,2.8l0.9,0.7l1.9,1.5
	c2.8-0.8,6.7-0.1,6.5,0.5s2,0.7,2.2-0.2s0.2,0.1,0.2,0.7s-1.8,3.2-2.2,4.3s-6.9,0.3-9.8,0.1s-7,0.7-7.3,1.6s-4.7-1.9-6.7-2.7
	s-3.6-3.9-4-4.3s0.3-1.4,0.1-2s-4.8-0.7-6.1-0.2s-8.3,1.2-9.9,1.9s-4.1,0-4.9-0.1s-2.6,2.2-3.5,2.5s-2,3.6-2.6,7.2l-1.2,2.4
	l-0.8,1.6c-2.3,1.7-4.8,7.5-5.6,8.7s-1.4,9.5-1.4,12.4s2.4,8.7,3.2,10.5s4.9,5.2,6.4,6.1s6,1,7.5,1c1.8-0.2,3.2-1.5,3.7-3.2l2.2,0.2
	h1c0,1.2,3.3,2.2,4.1,2.6c1.2,0.3,2.4,0.3,3.5-0.1c0.6-0.1,1.4,5.6,0.9,7.3s1.1,7.5,1.6,9.3s2.5,6.6,2.6,8.3s-1.1,7.5-1.4,9.5
	s2.5,7.6,3.2,9.5c0.6,2.3,1,4.6,1.2,7c0,0.9,3,6.8,3.6,9.2S188.7,240.1,190.8,238.9z"/>
<path class="st1" d="M329.5,167.1c0.1,0.5,2-1,3.2-1.2s1.8-3.2,0.9-3.4s-1.9-2.6-2.6-2.8s-1.8,1-1.8,1.9s-2,1.2-2.5,2
	s-0.3,1.2,0,1.2C327.8,165.4,328.7,166.2,329.5,167.1z"/>
<path class="st1" d="M327.3,183.8c0.6-0.2,0-3.2-1.2-3.4s-4.4,4-3.9,6.4s1.2,2.3,1.6,1.7s2.3,0.3,2.8,0.5s0.6-0.3,0-1.2
	S326.7,184.1,327.3,183.8z"/>
<path class="st1" d="M320.8,180.9c0.1-1,0.3-4.4,0.5-5.1s-1.8-2.6-2.8-3s-4.1,6.5-6.4,7.7s-3.1,5.5-2.5,6.4s5.3,1.5,6.1,2.2
	s1.7-0.1,2.3-0.2s0.3-0.5,0.1-0.6s1.6-2,1.9-3.3C320.4,183.7,320.6,182.3,320.8,180.9z"/>
<path class="st1" d="M307.8,192.4c-1.7-0.7-3.9,0.3-4,1s6.8,1.8,9.2,2.4s3.7,0.8,3.3,0.5L307.8,192.4z"/>
<path class="st1" d="M322.3,146.4c0.6-0.8-0.8-4.4-1.5-3.6s-0.1,3,0,3.7S321.7,147.2,322.3,146.4z"/>
<path class="st1" d="M326.4,154.3c0.5-0.9-0.5-1.9-2-2.3s-1.2,4.2-0.6,4.8S326,155.2,326.4,154.3z"/>
<path class="st1" d="M300.8,208.7c1.8,1.2,5.9,0.7,6-1.7C305,205.8,300.7,206,300.8,208.7z"/>
<path class="st1" d="M320,131.5c-0.7,0.6-1,1.5-0.9,2.4h-0.3c-0.6,0-0.7,2.4,0,2.8s2.2-1.8,3-2.4c0.8-0.5,1.7-0.8,2.6-0.7
	c1.1-0.1,2.1-0.4,3.1-0.9c0.4-0.3,0.7-0.6,0.9-1c-0.3-1.7-0.8-3.4-1.1-5.2l-2,1.5L320,131.5z"/>
<path class="st2" d="M291.6,175"/>
<path class="st1" d="M303,185.6c-1.3-2.1-2.9-4-4.8-5.6l-0.7-1.2l-0.8-1.4c-0.7-1.5-3-2.6-3.2-3.1s-0.9,1.2-1.7,0.8l2.4,1.7
	c2,1.5,6.1,11.8,7.2,12.5S303.6,187,303,185.6z"/>
<path class="st1" d="M270.4,168.9c-0.6,1.1,3,3.6,3.3,3.1c0-1.4-0.3-2.8-1-4C271.9,167.3,271,167.7,270.4,168.9z"/>
<path class="st1" d="M222.6,223.8c0.1,1.2,2.6,2.2,3.3,1.9s2.7-3.9,3-4.9c0.3-1.3,0.5-2.6,0.6-3.9c0.1-0.7,0.3-1.3,0.6-1.9
	c0.5-0.8,0.8-1.7,1-2.7c0.2-1.4-1.5-7.8-1.5-9s-1.2,0.6-1.6,1.7s-3.5,3.5-4.3,4.4s-1.5,4.2-1.1,4.8c0.1,1.2-0.1,2.3-0.6,3.4
	C221.5,218.4,222.4,222.7,222.6,223.8z"/>
<path class="st1" d="M106.2,268.8h2.2C108.6,266.4,106.1,266.8,106.2,268.8z"/>
<path class="st1" d="M164.1,24.1c-1.2,0-2.5-0.2-3.6-0.8c-1.6-0.6-3.3-0.7-4.9-0.3c-1,0.5-0.3-2.5,1-2.7s0.2-2.3-1.2-2.3
	s-5.2-0.6-6-0.3c-1.1-0.1-2.2-0.3-3.2-0.7c-0.6-0.1-5.1,1.4-7.2,1.2c-2.8-0.1-5.6,0.1-8.4,0.5c-1.1,0.2-1.9,2.5-1.7,3.3
	s-5,0.8-6.6,0.8s-10.3,1.8-12.6,3.1s-4,4.4-3.3,4.4s-1.2,1.8-2.5,2.3s-4.1,0.6-4.8,1.2s0.7,1.1,0.9,1.6s1-0.3,1.8,0.1s3.3,0.6,4,0.9
	s-2.2,0.8-3.4,0.9s-1,2.6,0,3.1s3.9,0.7,4.1,0.2s3.3,0.5,4.7,0.7s2.4,3.5,2.8,4.3s0.5,3.3,0.5,4.1s2.4,2,2.8,1.6s0.3,1.1-0.7,1
	s-0.3,2.7,0.9,3.2s0.3,2.2-0.3,2.7s-0.3,2.2-1,2.8s2.6,6.4,2.5,9.3s1.8,5.3,2.5,5.3s3.1,0.6,3.4,1.2s1.5-0.5,1.9-0.9
	c0.8-1,1.5-2.1,2.2-3.2c0.8-1.2,2.4-7.2,2.6-7.8s3-0.2,3.6-0.6l3-2.2c0.5-0.5,4.4-2,5.6-2.8s2.8-4.1,3.7-4.9s-0.5-0.5-1.5-1.1
	c-0.5-0.3-0.7-1-0.4-1.5l0.2-0.3c0.2-0.3,3.5,0.5,4.5,0.9s3.2-1,2.4-1.6s-0.3-0.6,0-0.3s0.8-1.9,0.5-2.4s3.2-3.1,2.6-5.6
	s0.9-5.1,1.9-5.1s0.7-2.8-0.6-3.1s0-0.5,0.5-0.9c0.5-1.1,0.7-2.2,0.7-3.4c-0.2-0.5,1.8-1,2.2-1.6c1-0.8,2.2-1.4,3.5-1.8
	C164.4,26.4,164.9,24.1,164.1,24.1z"/>
<path class="st1" d="M184.6,26.4c-1.1-0.3-3.4,0.9-3.1,1.6s-1.8-0.9-3.3-0.1s-1.9,3.4-1.2,3.7s1.1,2.4,1.1,2.8s2.8,0.1,3.6-0.5
	s0.6,2-0.1,2.8s0.2,2.2,1,2.3s1.8,1.9,2.7,1.9s2.3-3.2,2.5-4.3s3.1-0.2,4.3,0.1s1.7-4.3,0.3-5.1s-3.1-0.3-3.6-0.9
	c-0.6-0.6-1.4-1-2.2-1.1C186.3,29.6,185.7,26.7,184.6,26.4z"/>
<path class="st1" d="M195.6,28.7c1.9,0,3.8-0.7,5.2-2c0.6-0.5-6.1-1.8-8.7-1.9s-4.5,0.2-4.5,0.8S193.5,28.3,195.6,28.7z"/>
<path class="st1" d="M154.9,89c-0.6-0.2-0.9,1.9-0.8,2.7s2.2,0.8,3.1,0.6c0.8-0.1,1.4-0.8,1.5-1.6c0-0.7-1.2-4-1.7-4
	S155.5,89.2,154.9,89z"/>
<path class="st1" d="M161.5,63.2c-0.5-0.8-3.9-0.7-4.8-0.7c-1.4-0.3-2.8-0.8-4-1.5c-0.6-0.6-0.8,2.2-1.6,2.5s0.5,0.8,0.7,0.6
	s0,1.4-0.5,1.9s2.3,0.9,2.6,1.8c0.5,0.9,1.4,1.4,2.4,1.2c1-0.1,3.1-1.2,3.9-1.4S162,64.1,161.5,63.2z"/>
<path class="st1" d="M235,43.2c1.1-1.1,6.1-2.8,6.7-4.1c0.4-0.8,0.2-1.7-0.6-2.2l0,0h-0.2c-0.5,0.1-0.9,0.4-1.2,0.8
	c-0.1,0.2-5.8,1.5-7.5,2.4c-1.6,0.7-3.1,1.7-4.4,2.8c-0.7,0.7-1.9,6.4-2.3,6.9s1.8,2.8,2.8,3.5c0.9,0.3,1.9,0.4,2.8,0.2
	c0.5-0.1-0.5-4-1-5.3S233.9,44.5,235,43.2z"/>
<path class="st1" d="M229,28.6c1.8,1.8,2.8-0.8,4.9-0.6C233.9,24.1,228.8,25.6,229,28.6z"/>
<path class="st1" d="M257.9,33.9c0,0.7,5.1,1.2,6.7,0.9s-0.3-2.6-2.5-2.5S257.9,33.2,257.9,33.9z"/>
<path class="st1" d="M76.2,68c-0.6,0.5,0,3.1,0.9,3.1s2.7-3.9,4-3.1s2.2,1,1.9,0.7s-3.9-1.9-4.3-2.3S76.8,67.5,76.2,68z"/>
<path class="st1" d="M89.5,154.8c0,0.5,2.3,0.3,2.6-0.3s0.1-1.2-0.5-1.2C90.7,153.5,90,154.1,89.5,154.8z"/>
<path class="st1" d="M79.4,151c1-0.2,0.6,1.5,0.8,2.2s2.8,1.1,3.4,1.6s1.8-0.8,2.8-0.7s-0.3-3.6-2-3.5s-3.1-1.6-3.5-1.8
	c-1.1-0.5-2.1-1.1-3-1.8c-0.6-0.5-5-0.8-6.5-0.8c-1.4,0.1-2.6,0.9-3.4,2c-0.2,0.5,2.4,0.9,3.1,0.5s4.2,0.5,5,1.2
	C77,150.7,78.2,151.1,79.4,151z"/>
<path class="st1" d="M74.6,154.8c0,0.5,2.3,0.1,2.8,0.1s0.6-0.5,0-0.8S74.6,154.3,74.6,154.8z"/>
<path class="st1" d="M76.2,143c-0.6-0.2-1,0.7-1,1.1c0,0.4,0.3,0.7,0.7,0.8C76.3,144.9,76.9,143.2,76.2,143z"/>
<path class="st1" d="M81.1,143.3c-0.3-0.5-0.9-0.8-1.5-0.8c-0.3,0-0.5,0.7-0.5,1.7S81.2,143.7,81.1,143.3z"/>
<path class="st1" d="M84.5,148.6c0.9-0.5,1-1.5,0.5-1.5s-1.6-1.6-2.2-1.8s-1,1-1,1.5c-0.1,0.4,0.2,0.7,0.6,0.8l0,0h0.1
	C82.9,147.5,83.6,149.1,84.5,148.6z"/>
<path class="st1" d="M311.5,170.5c-0.5,0.2-2.7,0.5-3.1,0.1s-0.7,0.9-1.2,1.1c-0.2,0.2-0.2,0.6,0,0.8s0.4,0.2,0.6,0.2
	c0.8-0.3,2.7,0.9,4.4,2c0.3-1.7,0.7-3.5,0.9-5.3L311.5,170.5z"/>
<path class="st1" d="M67.2,205.1c-0.2,0.5,2.6,3.3,3.6,4.3c1.6,2.2,2.9,4.7,3.9,7.3c0.3,1.6,0.3,3.1,0,4.7c0.1,0.8,0.3,1.6,0.6,2.4
	c0.1,0.6-0.9,5.1-0.6,7s-2.2,7.6-2,10.6s1.4,6.6,1.8,6.4s0.7,2.6-0.1,3s-1.9,2.6-1.4,2.7s0,2.4,0.1,3.3s0.9,6.9,1,8.4
	s2.3,5.1,2.7,6.4s0.9,3.5,1,3.9l0.3,0.8c0.8,0.2,1.6,0.6,2.3,1c0.5,0.3,3.9,0.1,5-0.1s0.1-1.2-0.3-1.7s-0.9-3.2-1.5-3.4
	s-0.8-3.6-0.3-4.4s2.5-1.9,2.7-2.6s0.2-3.5-0.2-4s0.1-4-0.2-5.8s3.1-3.4,3.3-4.8s4-3,4.8-3.6s1.6-4.8,1.1-5.6s1.4-1.6,2.2-1.6l2-0.6
	c0.2,0,1.2-1.8,1.7-2.2s1.6-4.7,2.5-5.3c0.9-1.1,1.5-2.5,1.7-4c0.4-1.3,1-2.5,1.9-3.6c0.5-0.7,4-2.3,4.7-2.5s1.6-5.9,1.8-8
	c0.4-1.9,0.8-3.7,1.4-5.5c0-0.7,1.1-1.2,1.4-1.5s1-2.8,1.6-3.4s2.5-3.1,2.5-3.6c0.1-1.1,0.4-2.2,0.7-3.2v-3.5
	c-0.6-1.7-2.5-3.9-3-3.3s-2.6-1.5-3.7-1.9c-1.5-0.4-3-0.7-4.5-0.7c-0.7,0-3.1-1.9-4.2-2.3c-1.5-0.3-2.9-0.6-4.3-1.1
	c-0.5-0.3-1.1-4.4-3.4-5.8s-6.1-4.5-6.6-5.7s-4.7-3.5-6-4.3s-3.3-0.9-3.5-0.6s-1.9-2.3-2.7-3s-3.4-1.2-3.5-0.7s-1.8,0.2-2.2-0.2
	s-1.7,0.2-2.4,0.5s-2.7,3.4-3.7,4.2s-2.2-0.7-2.8-1c-1.3,0-2.6,0.3-3.7,1c-0.7,0.5-2.2-3.4-1.8-5.2s-1.6-5.3-3.2-5.5
	s-1.9-3.9-1.7-5.2s-2.7-2.3-3.5-2.4s-2.6,1.8-3,2.8s-7.3-1.2-6.5-5.5s4.1-8.5,4.9-9s5.2-0.7,6.2-0.1c0.6,0.3,1.4,0.3,2-0.2
	c1.7-0.1,3.3,0,4.9,0.5c1,0.5,2.6,4.7,3.7,5.1s1.5-2.7,1.7-3.5c-0.1-1.1-0.4-2.3-0.8-3.3c-0.2-0.6,1.8-5.7,3.5-6.5s3.5-3.7,3.3-4.2
	s1.4-0.9,1.7-1.1s0-4.3,0.6-5.2c1.5-1.3,3.1-2.4,4.9-3.2c1-0.5,1.7-3,1.4-3.5s2.6-3,4.2-3.5s2.8,0.9,2.5,1l3.3-1.8
	c0.9-0.6,0-2.6-0.7-3.2s-0.2-2.7,0.6-3c0.8-0.6,1.3-1.5,1.2-2.5c-0.2-0.3,3.4,0.3,4.8-0.7s0.3,2.4-0.6,3.9c-0.5,0.7-0.3,1.7,0.4,2.2
	c0.3,0.2,0.6,0.3,1,0.3c0.7,0,1.3,0.4,1.5,1.1c0.1,0.3,1.5-0.5,2.4,0s1.5-1.2,1.5-2s-2.2-2.3-2.5-3.3c-0.3-2.5-0.5-4.9-0.5-7.4
	c0-1-1.5-2.8-1.9-2.5s-1.4-2.8-2.2-3.5c-0.6-0.8-0.9-1.7-0.9-2.7c0-0.5-2.5-3.2-3.2-4.4s-1.5-1-1.6-0.5s-1.8,0.7-2.6,0.6
	s-1.4-3-1.4-4s-3.3-1.2-3.9-2.2s-2.7-0.5-3.1-1c-0.7-0.6-1.6-1-2.6-0.9c-0.3,0.2-0.2,8.1-0.6,10.1s-2.2,4-2.8,3.9s-0.2,1.5,0.1,1.4
	s-1.2,2.3-1.5,3.9s-1.8,0-2-1.5s-1.8-3.4-2.2-3s-1.4-0.6-1.8-0.2s-3.4-1.7-4.7-2.4s-1.8-4.3-2.6-4.7s-0.1-0.8-0.1-1.4
	s2.4-2.7,3.1-3.5c1.3-1.7,2.8-3.4,4.3-5c1-0.8,1.8-2.6,1.6-3s4.4-1.8,5.7-2.2s2.3-3.9,2.5-4.9c0-1.2-0.5-2.3-1.4-3.1
	c-0.6-0.2,1.7-0.3,2.5,0.1s3.1-0.7,4.1-0.2l4.2,2.5L82.9,62l-0.6,4.3c-3.6,1.5-4.7,4.1-3.4,4s7,2.5,8.6,3.6s2.2-1.7,2.6-2.6
	c0.4-1.4,0.4-2.8,0-4.2c-0.5-0.6,1.8-0.3,2.5,0.2s1.4-0.6,1.8-0.9s0.7-2.6,1-3.1s-1-0.9-1.1-1.6s-2.6-1.7-3.4-2.2
	c-0.8-0.6-1-1.6-0.6-2.5c0.3-0.3-0.2-2.6-0.7-3.3s-3.1-1.4-4-1.4s-1.8-2-2.4-2.4c-1.6-0.4-3.3-0.6-4.9-0.5c-0.8,0.2-2.4-2.5-3.9-1.6
	s-3-0.9-3.6-1.4s-4.1,3.3-4,5.8s1.2,5,1.8,5.1s-0.1,2.4-0.7,3.1s-2-0.7-1.5-1.2s-1.5-3.3-2.2-4.3s-2.3-1.5-3.4-1.9l-2,2.3
	c0.3,1,0.4,2.1,0.2,3.1c-0.5,1.6-1.8,1.8-1.8,1.1c-0.4-0.4-0.9-0.6-1.5-0.6l-2,2.6l-2,2.6l-2,2.8l-1.8,2.5l-2.6,3.9L42.9,77
	c-0.7,1-1.2,2.2-1.9,3.3c-0.5,0.7-0.9,1.5-1.2,2.3l-1.9,3.5l-1,2c-1.4,2.7-2.7,5.6-4,8.5v0.2l-1.7,4.3l-0.7,1.6l-1.6,4.4l-0.2,0.7
	c-1.7,5-3.2,10.1-4.4,15.3c-0.1,0.3-0.1,0.7-0.2,1c-1.2,5.5-2.2,11.1-2.8,16.7l0,0c0.8,0.7,1.4,1.6,1.8,2.6c0.5,1.4,2.8,2.3,3.3,2.6
	s0.6-2.6,0.2-3.4s0.6-1.1,0.6-0.7s2.3,3.1,3,4.1s1.5,6.9,2.3,8.2c0.8,1.3,7.6,4,9.9,4.4c2.1,0.7,4,1.9,5.5,3.6c0.5,0.7,3.4,1,4,1.4
	c1,0.8,1.9,1.7,2.7,2.7c0.5,0.5,0.9,1.2,1.1,1.9c0,0.3,3.9,1.8,4.9,2.8c0.8,0.7,1.9,0.8,2.8,0.3c0.2-0.5,1,2,1.5,3s0.5,3,0.1,3.3
	s-0.8,4.2-1.5,5s-2,6.5-1.7,7.6c0.6,1.5,1.7,2.8,3,3.7c0.4,0.2,0.6,0.8,0.3,1.2v0.1l-0.4,0.3c-0.6,0-0.3,5.6,1.1,6.4
	S67.5,204.7,67.2,205.1z"/>
<line class="st3" x1="95.8" y1="108.8" x2="95.8" y2="108.8"/>
<path class="st1" d="M85,42.2c1.8-0.3,5-0.9,5.2-1.4c0.1-0.7,0.1-1.5-0.1-2.2H91c0.7,0,1.9-3.9,2.6-4.8s5-2.3,6-2.8s3.3-2.7,4.1-3.1
	s2.2-2.3,1.9-2.6s3-2.3,4.1-2.7s1.8-1.8,1.4-1.9s-6.8,3.4-12.8,6.8h-0.1l-5.1,3.6l-3.3,2.6l-1.7,1.4l-3.9,3.3l-0.8,0.7l-4.2,3.7
	L85,42.2z"/>
<path class="st1" d="M175.5,121.2c-0.7,0-0.8,2.2,0,2.5s1.2-1.2,1.9-2.2v-8.7h-0.1c-0.9-0.9-0.8-0.9,0.1-0.2V58.4l-2,1.8
	c-1.2,1-3.5,5.3-4.2,6.5c-0.5,0.7-1.3,1.2-2.2,1.2c-0.5,0.4-0.8,1-0.8,1.6c0,0.5-3.7,2.4-4.2,4.1s0.5,5.7,0.5,7s1.4,4.2,2.4,4.2
	s0.6,2.4,0.2,3.1s0.7,1.4,0.6,1.9s-2.6,1.4-3.4,1.6c-1.1,0.7-1.9,1.6-2.3,2.8c-0.1,0.6-2.6,1-3.5,1.8s0.6-1.4,0.7-1.8
	c0.3-1,0-2-0.6-2.8c-0.3-0.3-0.6-4.9-1.2-5.9c-0.8-1.1-1.7-2.1-2.6-3c-0.5-0.3,0.2-1.5,0.6-2s-2.2-0.8-2.7-0.5s-1,4.9-1.2,6.1
	c0,1.3,0.6,2.5,1.6,3.2c0.5,0.1,0.2,2.3-0.6,2.4s-1.6,3.3-1.1,4.1s-0.6,2.2-1,2.5s3.2,0.1,4.9,0.1c1-0.1,2,0.2,2.8,0.8
	c-0.1,0.1-3.2,0.6-3.7,1.2s-2.6,2-3,2.6s0.7,1.7,1.5,1.7s1.8,3,2.5,3.5c0.5,0.8,0.6,1.8,0.1,2.6c-0.2,0.5-4.4-0.2-5.9,0.1
	s-3.5,3.6-3.6,4.9c0,1.9,0.2,3.9,0.5,5.8c0.1,0.9,3.4,1.6,4.1,2s3.7,0,4.4,0.3s2.7-3.2,3.2-4.8s3.7-4.5,4.4-5.7s4.2-0.9,5.1-1.5
	s0.5,2.7,0.8,4.5s3.9,1.6,3.3-0.1s0.3-2.4,0.5-1.8s3.4,1.9,4.1,2.8S176.2,121.2,175.5,121.2z"/>
<path class="st1" d="M179.6,130.1l-1.7-0.8c-2-0.8-3.6-3.9-4-4.3s0.3-1.4,0.1-2s-4.8-0.7-6.1-0.2s-8.3,1.2-9.9,1.9s-4.1,0-4.9-0.1
	s-2.6,2.2-3.5,2.5s-2,3.6-2.6,7.2l-1.2,2.4l-0.8,1.6c-2.3,1.7-4.8,7.5-5.6,8.7s-1.4,9.5-1.4,12.4s2.4,8.7,3.2,10.5s4.9,5.2,6.4,6.1
	s6,1,7.5,1c1.8-0.2,3.2-1.5,3.7-3.2l2.2,0.2h1c0,1.2,3.3,2.2,4.1,2.6c1.2,0.3,2.4,0.3,3.5-0.1c0.6-0.1,1.4,5.6,0.9,7.3
	s1.1,7.5,1.6,9.3s2.5,6.6,2.6,8.3s-1.1,7.5-1.4,9.5s2.5,7.6,3.2,9.5c0.6,2.3,1,4.6,1.2,7c0.4,1.4,0.9,2.8,1.6,4.1V129.9l0,0
	L179.6,130.1z"/>
<path class="st1" d="M106.2,268.8h2.2C108.6,266.4,106.1,266.8,106.2,268.8z"/>
<path class="st1" d="M149.8,52.6c1.1,0.5,3.2-1,2.4-1.6s-0.3-0.6,0-0.3s0.8-1.9,0.5-2.4s3.2-3.1,2.6-5.6s1-5.1,1.9-5.1
	s0.7-2.8-0.6-3.1s0-0.5,0.5-0.9c0.5-1.1,0.7-2.2,0.7-3.4c-0.2-0.5,1.8-1,2.2-1.6c1-0.9,2.2-1.5,3.5-1.8c0.9-0.1,1.2-2.4,0.5-2.3
	c-1.2,0-2.5-0.2-3.6-0.8c-0.5-0.5-3.9-0.8-4.9-0.5s-0.3-2.5,1-2.7s0.2-2.3-1.2-2.3s-5.2-0.6-6-0.3c-1.1-0.1-2.2-0.3-3.2-0.7
	c-0.6-0.1-5.1,1.4-7.2,1.2c-2.8-0.1-5.6,0.1-8.4,0.5c-1.1,0.2-1.9,2.5-1.7,3.3s-5,0.8-6.6,0.8s-10.3,1.8-12.6,3.1s-4,4.4-3.3,4.4
	s-1.2,1.8-2.5,2.3S99.7,33.4,99,34s0.7,1.1,0.9,1.6s1-0.5,1.8,0s3.3,0.6,4,0.9s-2.2,0.8-3.4,0.9s-1,2.6,0,3.1s3.9,0.7,4.1,0.2
	s3.3,0.5,4.7,0.7s2.4,3.5,2.8,4.3s0.5,3.3,0.5,4.1s2.4,2,2.8,1.6s0.3,1.1-0.7,1s-0.3,2.7,0.9,3.2s0.3,2.2-0.3,2.7s-0.3,2.2-1,2.8
	s2.6,6.4,2.5,9.3s1.8,5.3,2.5,5.3s3.1,0.6,3.4,1.2s1.5-0.5,1.9-0.9c0.8-1,1.5-2.1,2.2-3.2c0.8-1.2,2.4-7.2,2.6-7.8s3-0.2,3.6-0.6
	l3-2.2c0.5-0.5,4.4-2,5.6-2.8s2.8-4.1,3.7-4.9s-0.5-0.5-1.5-1.1c-0.5-0.3-0.7-1-0.4-1.5l0.2-0.3C145.5,51.4,148.8,52.2,149.8,52.6z"
	/>
<path class="st1" d="M184.6,26.4c-1.1-0.3-3.4,0.9-3.1,1.6s-1.8-0.9-3.3-0.1s-1.9,3.4-1.2,3.7s1.1,2.4,1.1,2.8s2.8,0.1,3.6-0.5
	s0.6,2-0.1,2.8s0.2,2.2,1,2.3s1.8,1.9,2.7,1.9c0.7-0.3,1.3-0.9,1.5-1.7v-9.8l0,0C186.3,29.6,185.7,26.7,184.6,26.4z"/>
<path class="st1" d="M157.3,92.3c0.8-0.1,1.4-0.8,1.5-1.6c0-0.7-1.2-4-1.7-4s-1.4,2.4-2,2.2s-0.9,1.9-0.8,2.7S156.3,92.5,157.3,92.3
	z"/>
<path class="st1" d="M154.1,67.9c0.5,0.9,1.4,1.4,2.4,1.2c1-0.1,3.1-1.2,3.9-1.4s1.5-3.7,1-4.5s-3.9-0.7-4.8-0.7
	c-1.4-0.3-2.8-0.8-4-1.5c-0.6-0.6-0.8,2.2-1.6,2.5s0.3,0.8,0.7,0.6s0,1.4-0.5,1.9S153.9,67.2,154.1,67.9z"/>
<path class="st1" d="M76.2,68c-0.6,0.5,0,3.1,0.9,3.1s2.7-3.9,4-3.1s2.2,1,1.9,0.7s-3.9-1.9-4.3-2.3S76.8,67.5,76.2,68z"/>
<path class="st1" d="M89.5,154.8c0,0.5,2.3,0.3,2.6-0.3s0.1-1.2-0.5-1.2C90.7,153.5,90,154.1,89.5,154.8z"/>
<path class="st1" d="M79.4,151c1-0.2,0.6,1.5,0.8,2.2s2.8,1.1,3.4,1.6s1.8-0.8,2.8-0.7s-0.3-3.6-2-3.5s-3.1-1.6-3.5-1.8
	c-1.1-0.5-2.1-1.1-3-1.8c-0.6-0.5-5-0.8-6.5-0.8c-1.4,0.1-2.6,0.9-3.4,2c-0.2,0.5,2.4,0.9,3.1,0.5s4.2,0.5,5,1.2
	C77,150.7,78.2,151.1,79.4,151z"/>
<path class="st1" d="M74.6,154.8c0,0.5,2.3,0.1,2.8,0.1s0.6-0.5,0-0.8S74.6,154.3,74.6,154.8z"/>
<path class="st1" d="M76.2,143c-0.6-0.2-1,0.7-1,1.1c0,0.4,0.3,0.7,0.7,0.8C76.3,144.9,76.9,143.2,76.2,143z"/>
<path class="st1" d="M81.1,143.3c-0.3-0.5-0.9-0.8-1.5-0.8c-0.3,0-0.5,0.7-0.5,1.7S81.2,143.7,81.1,143.3z"/>
<path class="st1" d="M84.5,148.6c0.9-0.5,1-1.5,0.5-1.5s-1.6-1.6-2.2-1.8s-1,1-1,1.5c-0.1,0.4,0.2,0.7,0.6,0.8l0,0h0.1
	C82.9,147.5,83.6,149.1,84.5,148.6z"/>
<path class="st4" d="M90.2,39c-0.1-0.1-0.8,0.3-0.5,0.6c0.2,0.1,0.4,0,0.5-0.2C90.3,39.3,90.3,39.1,90.2,39z"/>
<path class="st4" d="M107.7,91.2c-0.1-0.1-0.8,0.3-0.6,0.6S108,91.5,107.7,91.2z"/>
<image style="overflow:visible;" width="1148" height="1024" xlink:href="LOGO.png"  transform="matrix(1.164635e-02 0 0 1.164635e-02 34 144.5945)">
</image>
<image style="overflow:visible;" width="1148" height="1024" xlink:href="LOGO.png"  transform="matrix(1.164635e-02 0 0 1.164635e-02 152.115 93.8147)">
</image>
<image style="overflow:visible;" width="1148" height="1024" xlink:href="LOGO.png"  transform="matrix(1.164635e-02 0 0 1.164635e-02 34 116.5169)">
</image>
<image style="overflow:visible;" width="1148" height="1024" xlink:href="LOGO.png"  transform="matrix(1.164635e-02 0 0 1.164635e-02 47.37 87.8518)">
</image>
<image style="overflow:visible;" width="1148" height="1024" xlink:href="LOGO.png"  transform="matrix(1.164635e-02 0 0 1.164635e-02 49.5 155.9411)">
</image>
<image style="overflow:visible;" width="1148" height="1024" xlink:href="LOGO.png"  transform="matrix(1.164635e-02 0 0 1.164635e-02 72.415 141.0502)">
</image>
<image style="overflow:visible;" width="1148" height="1024" xlink:href="LOGO.png"  transform="matrix(1.164635e-02 0 0 1.164635e-02 67.915 171.027)">
</image>
<image style="overflow:visible;" width="1148" height="1024" xlink:href="LOGO.png"  transform="matrix(1.164635e-02 0 0 1.164635e-02 67.915 188.337)">
</image>
<image style="overflow:visible;" width="1148" height="1024" xlink:href="LOGO.png"  transform="matrix(1.164635e-02 0 0 1.164635e-02 100.6192 188.337)">
</image>
<image style="overflow:visible;" width="1148" height="1024" xlink:href="LOGO.png"  transform="matrix(1.164635e-02 0 0 1.164635e-02 88.3219 208.3654)">
</image>
<image style="overflow:visible;" width="1148" height="1024" xlink:href="LOGO.png"  transform="matrix(1.164635e-02 0 0 1.164635e-02 79.1 225.5371)">
</image>
<image style="overflow:visible;" width="1148" height="1024" xlink:href="LOGO.png"  transform="matrix(1.164635e-02 0 0 1.164635e-02 74.4185 251.2262)">
</image>
<image style="overflow:visible;" width="1148" height="1024" xlink:href="LOGO.png"  transform="matrix(1.164635e-02 0 0 1.164635e-02 76.855 86.4482)">
</image>
<image style="overflow:visible;" width="1148" height="1024" xlink:href="LOGO.png"  transform="matrix(1.164635e-02 0 0 1.164635e-02 170.2 108.6945)">
</image>
<image style="overflow:visible;" width="1148" height="1024" xlink:href="LOGO.png"  transform="matrix(1.164635e-02 0 0 1.164635e-02 147.5961 110.554)">
</image>
<image style="overflow:visible;" width="1148" height="1024" xlink:href="LOGO.png"  transform="matrix(1.164635e-02 0 0 1.164635e-02 300.365 223.1148)">
</image>
<image style="overflow:visible;" width="1148" height="1024" xlink:href="LOGO.png"  transform="matrix(1.164635e-02 0 0 1.164635e-02 282.43 153.715)">
</image>
<image style="overflow:visible;" width="1148" height="1024" xlink:href="LOGO.png"  transform="matrix(1.164635e-02 0 0 1.164635e-02 255.685 146.0125)">
</image>
<image style="overflow:visible;" width="1148" height="1024" xlink:href="LOGO.png"  transform="matrix(1.164635e-02 0 0 1.164635e-02 300.365 127.127)">
</image>
<image style="overflow:visible;" width="1148" height="1024" xlink:href="LOGO.png"  transform="matrix(1.164635e-02 0 0 1.164635e-02 311.6268 175.1209)">
</image>
<image style="overflow:visible;" width="1148" height="1024" xlink:href="LOGO.png"  transform="matrix(1.164635e-02 0 0 1.164635e-02 169.965 65.1371)">
</image>
<image style="overflow:visible;" width="1148" height="1024" xlink:href="LOGO.png"  transform="matrix(1.164635e-02 0 0 1.164635e-02 194.1528 114.6575)">
</image>
<image style="overflow:visible;" width="1148" height="1024" xlink:href="LOGO.png"  transform="matrix(1.164635e-02 0 0 1.164635e-02 186.5626 54.9531)">
</image>
<image style="overflow:visible;" width="1148" height="1024" xlink:href="LOGO.png"  transform="matrix(1.164635e-02 0 0 1.164635e-02 311.6268 110.554)">
</image>
<image style="overflow:visible;" width="1148" height="1024" xlink:href="LOGO.png"  transform="matrix(1.164635e-02 0 0 1.164635e-02 224.7621 39.2891)">
</image>
<image style="overflow:visible;" width="1148" height="1024" xlink:href="LOGO.png"  transform="matrix(1.164635e-02 0 0 1.164635e-02 147.396 75.5163)">
</image>
<image style="overflow:visible;" width="1148" height="1024" xlink:href="LOGO.png"  transform="matrix(1.164635e-02 0 0 1.164635e-02 249 156.5945)">
</image>
</svg>
