<?xml version="1.0" encoding="iso-8859-1"?>
<!-- Generator: Adobe Illustrator 19.0.0, SVG Export Plug-In . SVG Version: 6.00 Build 0)  -->
<svg version="1.1" id="Capa_1" xmlns="http://www.w3.org/2000/svg" xmlns:xlink="http://www.w3.org/1999/xlink" x="0px" y="0px"
	 viewBox="0 0 464 464" style="enable-background:new 0 0 464 464;" xml:space="preserve">
<g>
	<path style="fill:#009245;" d="M376,55.864l-162.712,55.512l6.768,18.264c1.533,4.144-0.582,8.746-4.726,10.279
		c-0.001,0-0.001,0-0.002,0.001c-0.888,0.331-1.828,0.499-2.776,0.496c-3.346,0.002-6.34-2.079-7.504-5.216l-6.912-18.656L0,184.136
		h223.2l-7.008-18.928c-1.546-4.142,0.558-8.754,4.7-10.3s8.754,0.558,10.3,4.7l8.008,21.752c0.307,0.893,0.453,1.832,0.432,2.776
		h82.864c-8.957-42.92,16.703-85.483,58.84-97.6c1.312-0.408,2.632-0.68,3.944-1.032L376,55.864z"/>
	<path style="fill:#009245;" d="M224.208,186.92c1.163,3.134,4.153,5.214,7.496,5.216c4.37,0.014,7.923-3.518,7.936-7.887
		c0-0.038,0-0.075,0-0.113H223.2L224.208,186.92z"/>
</g>
<g>
	<path style="fill:#006837;" d="M212.552,140.416c0.948,0.003,1.888-0.165,2.776-0.496c4.144-1.532,6.261-6.134,4.729-10.278
		c0-0.001,0-0.001-0.001-0.002l-6.768-18.264l-15.152,5.168l6.912,18.656C206.212,138.337,209.206,140.418,212.552,140.416
		L212.552,140.416z"/>
	<path style="fill:#006837;" d="M231.2,159.648c-1.546-4.142-6.158-6.246-10.3-4.7s-6.246,6.158-4.7,10.3l7.008,18.928h16.464
		c0.021-0.944-0.125-1.883-0.432-2.776L231.2,159.648z"/>
</g>
<path style="fill:#399F49;" d="M459.928,215.064c1.376,0,2.712,0.136,4.072,0.2v-31.128H296v32c0,4.418-3.582,8-8,8s-8-3.582-8-8
	v-32H0v224h280v-32c0-4.418,3.582-8,8-8s8,3.582,8,8v32h168v-31.088c-1.36,0.056-2.696,0.192-4.072,0.192
	c-45.986,1.173-84.233-35.12-85.472-81.104C375.712,250.164,413.954,213.891,459.928,215.064L459.928,215.064z M296,344.136
	c0,4.418-3.582,8-8,8s-8-3.582-8-8v-32c0-4.418,3.582-8,8-8s8,3.582,8,8V344.136z M296,280.136c0,4.418-3.582,8-8,8s-8-3.582-8-8
	v-32c0-4.418,3.582-8,8-8s8,3.582,8,8V280.136z"/>
<g>
	<path style="fill:#39B54A;" d="M288,304.136c-4.418,0-8,3.582-8,8v32c0,4.418,3.582,8,8,8s8-3.582,8-8v-32
		C296,307.718,292.418,304.136,288,304.136z"/>
	<path style="fill:#39B54A;" d="M288,240.136c-4.418,0-8,3.582-8,8v32c0,4.418,3.582,8,8,8s8-3.582,8-8v-32
		C296,243.718,292.418,240.136,288,240.136z"/>
	<path style="fill:#39B54A;" d="M288,368.136c-4.418,0-8,3.582-8,8v32h16v-32C296,371.718,292.418,368.136,288,368.136z"/>
	<path style="fill:#39B54A;" d="M280,216.136c0,4.418,3.582,8,8,8s8-3.582,8-8v-32h-16V216.136z"/>
</g>
<g>
	<path style="fill:#006837;" d="M112,224.136H32c-4.418,0-8-3.582-8-8s3.582-8,8-8h80c4.418,0,8,3.582,8,8
		S116.418,224.136,112,224.136z"/>
	<path style="fill:#006837;" d="M160,256.136H32c-4.418,0-8-3.582-8-8s3.582-8,8-8h128c4.418,0,8,3.582,8,8
		S164.418,256.136,160,256.136z"/>
	<path style="fill:#006837;" d="M160,288.136H32c-4.418,0-8-3.582-8-8s3.582-8,8-8h128c4.418,0,8,3.582,8,8
		S164.418,288.136,160,288.136z"/>
	<path style="fill:#006837;" d="M160,320.136H32c-4.418,0-8-3.582-8-8s3.582-8,8-8h128c4.418,0,8,3.582,8,8
		S164.418,320.136,160,320.136z"/>
	<path style="fill:#006837;" d="M256,352.136h-88c-4.418,0-8-3.582-8-8s3.582-8,8-8h88c4.418,0,8,3.582,8,8
		S260.418,352.136,256,352.136z"/>
	<path style="fill:#006837;" d="M256,384.136h-88c-4.418,0-8-3.582-8-8s3.582-8,8-8h88c4.418,0,8,3.582,8,8
		S260.418,384.136,256,384.136z"/>
	<path style="fill:#006837;" d="M320,304.136c-4.418,0-8-3.582-8-8v-88c0-4.418,3.582-8,8-8s8,3.582,8,8v88
		C328,300.554,324.418,304.136,320,304.136z"/>
	<path style="fill:#006837;" d="M352,248.136c-4.418,0-8-3.582-8-8v-32c0-4.418,3.582-8,8-8s8,3.582,8,8v32
		C360,244.554,356.418,248.136,352,248.136z"/>
</g>
<path style="fill:#8CC63F;" d="M32,344.136h104v32H32V344.136z"/>
<g>
</g>
<g>
</g>
<g>
</g>
<g>
</g>
<g>
</g>
<g>
</g>
<g>
</g>
<g>
</g>
<g>
</g>
<g>
</g>
<g>
</g>
<g>
</g>
<g>
</g>
<g>
</g>
<g>
</g>
</svg>
