<?xml version="1.0" encoding="iso-8859-1"?>
<!-- Generator: Adobe Illustrator 19.0.0, SVG Export Plug-In . SVG Version: 6.00 Build 0)  -->
<svg version="1.1" id="Capa_1" xmlns="http://www.w3.org/2000/svg" xmlns:xlink="http://www.w3.org/1999/xlink" x="0px" y="0px"
	 viewBox="0 0 512 512" style="enable-background:new 0 0 512 512;" xml:space="preserve">
<g style="opacity:0.4;">
	<polygon style="fill:#F3853A;" points="336,384 464,384 336,512 	"/>
</g>
<path style="fill:#F3853A;" d="M400,0H112C76.656,0,48,28.656,48,64v384c0,35.344,28.656,64,64,64h192V352h160V64
	C464,28.656,435.344,0,400,0z M368,272H144c-8.832,0-16-7.168-16-16s7.168-16,16-16h224c8.832,0,16,7.168,16,16S376.832,272,368,272
	z M368,208H144c-8.832,0-16-7.168-16-16s7.168-16,16-16h224c8.832,0,16,7.168,16,16S376.832,208,368,208z M368,144H144
	c-8.832,0-16-7.168-16-16s7.168-16,16-16h224c8.832,0,16,7.168,16,16S376.832,144,368,144z"/>
<g>
</g>
<g>
</g>
<g>
</g>
<g>
</g>
<g>
</g>
<g>
</g>
<g>
</g>
<g>
</g>
<g>
</g>
<g>
</g>
<g>
</g>
<g>
</g>
<g>
</g>
<g>
</g>
<g>
</g>
</svg>
